<?xml version="1.0" encoding="UTF-8"?>
<svg width="700pt" height="700pt" version="1.1" viewBox="0 0 700 700" xmlns="http://www.w3.org/2000/svg" xmlns:xlink="http://www.w3.org/1999/xlink">
 <defs>
  
 </defs>
 <g>
  <path style="fill:white; height:50px; width:300px" d="m453.78 7.4648-107.27 185.8c-5.7422 9.9492 1.4375 22.395 12.93 22.395h67.605c-18.574 151.77-148.16 269.73-304.88 269.73-6.1289 0-11.102 4.9727-11.102 11.102v52.41c0.007813 6.1211 4.9727 11.094 11.102 11.094 197.89 0 361.07-151.33 379.98-344.34h71.836c11.492 0 18.672-12.438 12.93-22.395l-53.637-92.902-53.645-92.895c-5.7422-9.9531-20.109-9.9531-25.852 0z"/>
  <use x="70" y="653.332031" xlink:href="#v"/>
  <use x="92.832031" y="653.332031" xlink:href="#d"/>
  <use x="108.175781" y="653.332031" xlink:href="#a"/>
  <use x="129.273437" y="653.332031" xlink:href="#f"/>
  <use x="150.269531" y="653.332031" xlink:href="#c"/>
  <use x="165.140625" y="653.332031" xlink:href="#a"/>
  <use x="186.242188" y="653.332031" xlink:href="#k"/>
  <use x="219.34375" y="653.332031" xlink:href="#j"/>
  <use x="241.613281" y="653.332031" xlink:href="#i"/>
  <use x="272.722656" y="653.332031" xlink:href="#h"/>
  <use x="283.386719" y="653.332031" xlink:href="#e"/>
  <use x="301.828125" y="653.332031" xlink:href="#b"/>
  <use x="323.203125" y="653.332031" xlink:href="#g"/>
  <use x="345.351562" y="653.332031" xlink:href="#u"/>
  <use x="367.621094" y="653.332031" xlink:href="#f"/>
  <use x="388.617188" y="653.332031" xlink:href="#e"/>
  <use x="407.058594" y="653.332031" xlink:href="#t"/>
  <use x="427.746094" y="653.332031" xlink:href="#s"/>
  <use x="70" y="684.445312" xlink:href="#r"/>
  <use x="83.535156" y="684.445312" xlink:href="#d"/>
  <use x="98.878906" y="684.445312" xlink:href="#b"/>
  <use x="120.25" y="684.445312" xlink:href="#q"/>
  <use x="163.5" y="684.445312" xlink:href="#c"/>
  <use x="178.371094" y="684.445312" xlink:href="#p"/>
  <use x="200.519531" y="684.445312" xlink:href="#a"/>
  <use x="232.453125" y="684.445312" xlink:href="#o"/>
  <use x="258.488281" y="684.445312" xlink:href="#b"/>
  <use x="279.863281" y="684.445312" xlink:href="#n"/>
  <use x="302.011719" y="684.445312" xlink:href="#g"/>
  <use x="334.992188" y="684.445312" xlink:href="#m"/>
  <use x="357.792969" y="684.445312" xlink:href="#d"/>
  <use x="373.136719" y="684.445312" xlink:href="#b"/>
  <use x="394.507812" y="684.445312" xlink:href="#l"/>
  <use x="405.171875" y="684.445312" xlink:href="#a"/>
  <use x="426.273437" y="684.445312" xlink:href="#e"/>
  <use x="444.714844" y="684.445312" xlink:href="#c"/>
 </g>
</svg>
